<?xml version="1.0" encoding="UTF-8" standalone="no"?>
<!DOCTYPE svg PUBLIC "-//W3C//DTD SVG 1.1//EN"
 "http://www.w3.org/Graphics/SVG/1.1/DTD/svg11.dtd">
<!-- Generated by graphviz version 2.47.0 (20210316.0004)
 -->
<!-- Title: dependencies Pages: 1 -->
<svg width="1685pt" height="284pt"
 viewBox="0.00 0.00 1685.00 284.00" xmlns="http://www.w3.org/2000/svg" xmlns:xlink="http://www.w3.org/1999/xlink">
<g id="graph0" class="graph" transform="scale(1 1) rotate(0) translate(4 280)">
<title>dependencies</title>
<polygon fill="white" stroke="transparent" points="-4,4 -4,-280 1681,-280 1681,4 -4,4"/>
<text text-anchor="start" x="817.51" y="-42.4" font-family="Times-12" font-weight="bold" font-size="14.00">Legend</text>
<polygon fill="#ffffb3" stroke="transparent" points="604.5,-10 604.5,-30 624.5,-30 624.5,-10 604.5,-10"/>
<text text-anchor="start" x="628.13" y="-15.4" font-family="Times-12" font-size="14.00"> &#160;Declarations</text>
<polygon fill="#8dd3c7" stroke="transparent" points="717.5,-10 717.5,-30 737.5,-30 737.5,-10 717.5,-10"/>
<text text-anchor="start" x="741.23" y="-15.4" font-family="Times-12" font-size="14.00"> &#160;Module</text>
<polygon fill="#80b1d3" stroke="transparent" points="803.5,-10 803.5,-30 823.5,-30 823.5,-10 803.5,-10"/>
<text text-anchor="start" x="827.28" y="-15.4" font-family="Times-12" font-size="14.00"> &#160;Bootstrap</text>
<polygon fill="#fdb462" stroke="transparent" points="900.5,-10 900.5,-30 920.5,-30 920.5,-10 900.5,-10"/>
<text text-anchor="start" x="924.17" y="-15.4" font-family="Times-12" font-size="14.00"> &#160;Providers</text>
<polygon fill="#fb8072" stroke="transparent" points="996.5,-10 996.5,-30 1016.5,-30 1016.5,-10 996.5,-10"/>
<text text-anchor="start" x="1020.23" y="-15.4" font-family="Times-12" font-size="14.00"> &#160;Exports</text>
<g id="clust1" class="cluster">
<title>cluster_AppModule</title>
<polygon fill="none" stroke="black" stroke-dasharray="1,5" points="8,-70 8,-268 1669,-268 1669,-70 8,-70"/>
</g>
<g id="clust2" class="cluster">
<title>cluster_AppModule_declarations</title>
<polygon fill="none" stroke="black" points="168,-78 168,-130 1661,-130 1661,-78 168,-78"/>
</g>
<g id="clust13" class="cluster">
<title>cluster_AppModule_imports</title>
<polygon fill="none" stroke="black" points="16,-78 16,-130 160,-130 160,-78 16,-78"/>
</g>
<g id="clust15" class="cluster">
<title>cluster_AppModule_bootstrap</title>
<polygon fill="none" stroke="black" points="717,-208 717,-260 841,-260 841,-208 717,-208"/>
</g>
<!-- AcercadeComponent -->
<g id="node1" class="node">
<title>AcercadeComponent</title>
<polygon fill="#ffffb3" stroke="black" points="1653.17,-122 1518.83,-122 1518.83,-86 1653.17,-86 1653.17,-122"/>
<text text-anchor="middle" x="1586" y="-99.8" font-family="Times,serif" font-size="14.00">AcercadeComponent</text>
</g>
<!-- AppModule -->
<g id="node11" class="node">
<title>AppModule</title>
<polygon fill="#8dd3c7" stroke="black" points="820.66,-187 817.66,-191 796.66,-191 793.66,-187 737.34,-187 737.34,-151 820.66,-151 820.66,-187"/>
<text text-anchor="middle" x="779" y="-164.8" font-family="Times,serif" font-size="14.00">AppModule</text>
</g>
<!-- AcercadeComponent&#45;&gt;AppModule -->
<g id="edge1" class="edge">
<title>AcercadeComponent&#45;&gt;AppModule</title>
<path fill="none" stroke="black" d="M1586,-122.25C1586,-145.02 1586,-181 1586,-181 1586,-181 830.69,-181 830.69,-181"/>
<polygon fill="black" stroke="black" points="830.69,-177.5 820.69,-181 830.69,-184.5 830.69,-177.5"/>
</g>
<!-- AppComponent -->
<g id="node2" class="node">
<title>AppComponent</title>
<polygon fill="#ffffb3" stroke="black" points="1500.94,-122 1395.06,-122 1395.06,-86 1500.94,-86 1500.94,-122"/>
<text text-anchor="middle" x="1448" y="-99.8" font-family="Times,serif" font-size="14.00">AppComponent</text>
</g>
<!-- AppComponent&#45;&gt;AppModule -->
<g id="edge2" class="edge">
<title>AppComponent&#45;&gt;AppModule</title>
<path fill="none" stroke="black" d="M1448,-122.28C1448,-143.32 1448,-175 1448,-175 1448,-175 830.85,-175 830.85,-175"/>
<polygon fill="black" stroke="black" points="830.85,-171.5 820.85,-175 830.85,-178.5 830.85,-171.5"/>
</g>
<!-- CrearreporteComponent -->
<g id="node3" class="node">
<title>CrearreporteComponent</title>
<polygon fill="#ffffb3" stroke="black" points="1377.06,-122 1224.94,-122 1224.94,-86 1377.06,-86 1377.06,-122"/>
<text text-anchor="middle" x="1301" y="-99.8" font-family="Times,serif" font-size="14.00">CrearreporteComponent</text>
</g>
<!-- CrearreporteComponent&#45;&gt;AppModule -->
<g id="edge3" class="edge">
<title>CrearreporteComponent&#45;&gt;AppModule</title>
<path fill="none" stroke="black" d="M1301,-122.11C1301,-141.34 1301,-169 1301,-169 1301,-169 830.84,-169 830.84,-169"/>
<polygon fill="black" stroke="black" points="830.84,-165.5 820.84,-169 830.84,-172.5 830.84,-165.5"/>
</g>
<!-- EncontradoSingleComponent -->
<g id="node4" class="node">
<title>EncontradoSingleComponent</title>
<polygon fill="#ffffb3" stroke="black" points="1206.64,-122 1025.36,-122 1025.36,-86 1206.64,-86 1206.64,-122"/>
<text text-anchor="middle" x="1116" y="-99.8" font-family="Times,serif" font-size="14.00">EncontradoSingleComponent</text>
</g>
<!-- EncontradoSingleComponent&#45;&gt;AppModule -->
<g id="edge4" class="edge">
<title>EncontradoSingleComponent&#45;&gt;AppModule</title>
<path fill="none" stroke="black" d="M1116,-122.02C1116,-139.37 1116,-163 1116,-163 1116,-163 830.66,-163 830.66,-163"/>
<polygon fill="black" stroke="black" points="830.66,-159.5 820.66,-163 830.66,-166.5 830.66,-159.5"/>
</g>
<!-- EncontradosComponent -->
<g id="node5" class="node">
<title>EncontradosComponent</title>
<polygon fill="#ffffb3" stroke="black" points="1007.81,-122 856.19,-122 856.19,-86 1007.81,-86 1007.81,-122"/>
<text text-anchor="middle" x="932" y="-99.8" font-family="Times,serif" font-size="14.00">EncontradosComponent</text>
</g>
<!-- EncontradosComponent&#45;&gt;AppModule -->
<g id="edge5" class="edge">
<title>EncontradosComponent&#45;&gt;AppModule</title>
<path fill="none" stroke="black" d="M932,-122.24C932,-137.57 932,-157 932,-157 932,-157 830.81,-157 830.81,-157"/>
<polygon fill="black" stroke="black" points="830.81,-153.5 820.81,-157 830.81,-160.5 830.81,-153.5"/>
</g>
<!-- FooterComponent -->
<g id="node6" class="node">
<title>FooterComponent</title>
<polygon fill="#ffffb3" stroke="black" points="837.88,-122 720.12,-122 720.12,-86 837.88,-86 837.88,-122"/>
<text text-anchor="middle" x="779" y="-99.8" font-family="Times,serif" font-size="14.00">FooterComponent</text>
</g>
<!-- FooterComponent&#45;&gt;AppModule -->
<g id="edge6" class="edge">
<title>FooterComponent&#45;&gt;AppModule</title>
<path fill="none" stroke="black" d="M779,-122.11C779,-122.11 779,-140.99 779,-140.99"/>
<polygon fill="black" stroke="black" points="775.5,-140.99 779,-150.99 782.5,-140.99 775.5,-140.99"/>
</g>
<!-- ListadoComponent -->
<g id="node7" class="node">
<title>ListadoComponent</title>
<polygon fill="#ffffb3" stroke="black" points="701.83,-122 578.17,-122 578.17,-86 701.83,-86 701.83,-122"/>
<text text-anchor="middle" x="640" y="-99.8" font-family="Times,serif" font-size="14.00">ListadoComponent</text>
</g>
<!-- ListadoComponent&#45;&gt;AppModule -->
<g id="edge7" class="edge">
<title>ListadoComponent&#45;&gt;AppModule</title>
<path fill="none" stroke="black" d="M640,-122.24C640,-137.57 640,-157 640,-157 640,-157 727.3,-157 727.3,-157"/>
<polygon fill="black" stroke="black" points="727.3,-160.5 737.3,-157 727.3,-153.5 727.3,-160.5"/>
</g>
<!-- LoginComponent -->
<g id="node8" class="node">
<title>LoginComponent</title>
<polygon fill="#ffffb3" stroke="black" points="560.28,-122 445.72,-122 445.72,-86 560.28,-86 560.28,-122"/>
<text text-anchor="middle" x="503" y="-99.8" font-family="Times,serif" font-size="14.00">LoginComponent</text>
</g>
<!-- LoginComponent&#45;&gt;AppModule -->
<g id="edge8" class="edge">
<title>LoginComponent&#45;&gt;AppModule</title>
<path fill="none" stroke="black" d="M503,-122.02C503,-139.37 503,-163 503,-163 503,-163 727.08,-163 727.08,-163"/>
<polygon fill="black" stroke="black" points="727.08,-166.5 737.08,-163 727.08,-159.5 727.08,-166.5"/>
</g>
<!-- MainComponent -->
<g id="node9" class="node">
<title>MainComponent</title>
<polygon fill="#ffffb3" stroke="black" points="427.38,-122 316.62,-122 316.62,-86 427.38,-86 427.38,-122"/>
<text text-anchor="middle" x="372" y="-99.8" font-family="Times,serif" font-size="14.00">MainComponent</text>
</g>
<!-- MainComponent&#45;&gt;AppModule -->
<g id="edge9" class="edge">
<title>MainComponent&#45;&gt;AppModule</title>
<path fill="none" stroke="black" d="M372,-122.11C372,-141.34 372,-169 372,-169 372,-169 726.98,-169 726.98,-169"/>
<polygon fill="black" stroke="black" points="726.98,-172.5 736.98,-169 726.98,-165.5 726.98,-172.5"/>
</g>
<!-- NavbarComponent -->
<g id="node10" class="node">
<title>NavbarComponent</title>
<polygon fill="#ffffb3" stroke="black" points="298.03,-122 175.97,-122 175.97,-86 298.03,-86 298.03,-122"/>
<text text-anchor="middle" x="237" y="-99.8" font-family="Times,serif" font-size="14.00">NavbarComponent</text>
</g>
<!-- NavbarComponent&#45;&gt;AppModule -->
<g id="edge10" class="edge">
<title>NavbarComponent&#45;&gt;AppModule</title>
<path fill="none" stroke="black" d="M237,-122.28C237,-143.32 237,-175 237,-175 237,-175 726.92,-175 726.92,-175"/>
<polygon fill="black" stroke="black" points="726.92,-178.5 736.92,-175 726.92,-171.5 726.92,-178.5"/>
</g>
<!-- AppComponent  -->
<g id="node13" class="node">
<title>AppComponent </title>
<polygon fill="#80b1d3" stroke="black" points="833.44,-252 724.56,-252 724.56,-216 833.44,-216 833.44,-252"/>
<text text-anchor="middle" x="779" y="-229.8" font-family="Times,serif" font-size="14.00">AppComponent </text>
</g>
<!-- AppModule&#45;&gt;AppComponent  -->
<g id="edge12" class="edge">
<title>AppModule&#45;&gt;AppComponent </title>
<path fill="none" stroke="black" stroke-dasharray="1,5" d="M779,-187.11C779,-187.11 779,-205.99 779,-205.99"/>
<polygon fill="black" stroke="black" points="775.5,-205.99 779,-215.99 782.5,-205.99 775.5,-205.99"/>
</g>
<!-- AppRoutingModule -->
<g id="node12" class="node">
<title>AppRoutingModule</title>
<polygon fill="#8dd3c7" stroke="black" points="152.27,-122 149.27,-126 128.27,-126 125.27,-122 23.73,-122 23.73,-86 152.27,-86 152.27,-122"/>
<text text-anchor="middle" x="88" y="-99.8" font-family="Times,serif" font-size="14.00">AppRoutingModule</text>
</g>
<!-- AppRoutingModule&#45;&gt;AppModule -->
<g id="edge11" class="edge">
<title>AppRoutingModule&#45;&gt;AppModule</title>
<path fill="none" stroke="black" d="M88,-122.25C88,-145.02 88,-181 88,-181 88,-181 727.33,-181 727.33,-181"/>
<polygon fill="black" stroke="black" points="727.33,-184.5 737.33,-181 727.33,-177.5 727.33,-184.5"/>
</g>
</g>
</svg>
