<?xml version="1.0" encoding="UTF-8" standalone="no"?>
<!DOCTYPE svg PUBLIC "-//W3C//DTD SVG 1.1//EN"
 "http://www.w3.org/Graphics/SVG/1.1/DTD/svg11.dtd">
<!-- Generated by graphviz version 2.47.0 (20210316.0004)
 -->
<!-- Title: dependencies Pages: 1 -->
<svg width="1685pt" height="284pt"
 viewBox="0.00 0.00 1685.00 284.00" xmlns="http://www.w3.org/2000/svg" xmlns:xlink="http://www.w3.org/1999/xlink">
<g id="graph0" class="graph" transform="scale(1 1) rotate(0) translate(4 280)">
<title>dependencies</title>
<polygon fill="white" stroke="transparent" points="-4,4 -4,-280 1681,-280 1681,4 -4,4"/>
<text text-anchor="start" x="817.51" y="-42.4" font-family="Times-12" font-weight="bold" font-size="14.00">Legend</text>
<polygon fill="#ffffb3" stroke="transparent" points="604.5,-10 604.5,-30 624.5,-30 624.5,-10 604.5,-10"/>
<text text-anchor="start" x="628.13" y="-15.4" font-family="Times-12" font-size="14.00"> &#160;Declarations</text>
<polygon fill="#8dd3c7" stroke="transparent" points="717.5,-10 717.5,-30 737.5,-30 737.5,-10 717.5,-10"/>
<text text-anchor="start" x="741.23" y="-15.4" font-family="Times-12" font-size="14.00"> &#160;Module</text>
<polygon fill="#80b1d3" stroke="transparent" points="803.5,-10 803.5,-30 823.5,-30 823.5,-10 803.5,-10"/>
<text text-anchor="start" x="827.28" y="-15.4" font-family="Times-12" font-size="14.00"> &#160;Bootstrap</text>
<polygon fill="#fdb462" stroke="transparent" points="900.5,-10 900.5,-30 920.5,-30 920.5,-10 900.5,-10"/>
<text text-anchor="start" x="924.17" y="-15.4" font-family="Times-12" font-size="14.00"> &#160;Providers</text>
<polygon fill="#fb8072" stroke="transparent" points="996.5,-10 996.5,-30 1016.5,-30 1016.5,-10 996.5,-10"/>
<text text-anchor="start" x="1020.23" y="-15.4" font-family="Times-12" font-size="14.00"> &#160;Exports</text>
<g id="clust1" class="cluster">
<title>cluster_AppModule</title>
<polygon fill="none" stroke="black" stroke-dasharray="1,5" points="8,-70 8,-268 1669,-268 1669,-70 8,-70"/>
</g>
<g id="clust15" class="cluster">
<title>cluster_AppModule_bootstrap</title>
<polygon fill="none" stroke="black" points="718,-208 718,-260 842,-260 842,-208 718,-208"/>
</g>
<g id="clust13" class="cluster">
<title>cluster_AppModule_imports</title>
<polygon fill="none" stroke="black" points="1517,-78 1517,-130 1661,-130 1661,-78 1517,-78"/>
</g>
<g id="clust2" class="cluster">
<title>cluster_AppModule_declarations</title>
<polygon fill="none" stroke="black" points="16,-78 16,-130 1509,-130 1509,-78 16,-78"/>
</g>
<!-- AcercadeComponent -->
<g id="node1" class="node">
<title>AcercadeComponent</title>
<polygon fill="#ffffb3" stroke="black" points="1501.17,-122 1366.83,-122 1366.83,-86 1501.17,-86 1501.17,-122"/>
<text text-anchor="middle" x="1434" y="-99.8" font-family="Times,serif" font-size="14.00">AcercadeComponent</text>
</g>
<!-- AppModule -->
<g id="node11" class="node">
<title>AppModule</title>
<polygon fill="#8dd3c7" stroke="black" points="821.66,-187 818.66,-191 797.66,-191 794.66,-187 738.34,-187 738.34,-151 821.66,-151 821.66,-187"/>
<text text-anchor="middle" x="780" y="-164.8" font-family="Times,serif" font-size="14.00">AppModule</text>
</g>
<!-- AcercadeComponent&#45;&gt;AppModule -->
<g id="edge1" class="edge">
<title>AcercadeComponent&#45;&gt;AppModule</title>
<path fill="none" stroke="black" d="M1434,-122.28C1434,-143.32 1434,-175 1434,-175 1434,-175 831.91,-175 831.91,-175"/>
<polygon fill="black" stroke="black" points="831.91,-171.5 821.91,-175 831.91,-178.5 831.91,-171.5"/>
</g>
<!-- AppComponent -->
<g id="node2" class="node">
<title>AppComponent</title>
<polygon fill="#ffffb3" stroke="black" points="1348.94,-122 1243.06,-122 1243.06,-86 1348.94,-86 1348.94,-122"/>
<text text-anchor="middle" x="1296" y="-99.8" font-family="Times,serif" font-size="14.00">AppComponent</text>
</g>
<!-- AppComponent&#45;&gt;AppModule -->
<g id="edge2" class="edge">
<title>AppComponent&#45;&gt;AppModule</title>
<path fill="none" stroke="black" d="M1296,-122.11C1296,-141.34 1296,-169 1296,-169 1296,-169 831.79,-169 831.79,-169"/>
<polygon fill="black" stroke="black" points="831.79,-165.5 821.79,-169 831.79,-172.5 831.79,-165.5"/>
</g>
<!-- CrearreporteComponent -->
<g id="node3" class="node">
<title>CrearreporteComponent</title>
<polygon fill="#ffffb3" stroke="black" points="1225.06,-122 1072.94,-122 1072.94,-86 1225.06,-86 1225.06,-122"/>
<text text-anchor="middle" x="1149" y="-99.8" font-family="Times,serif" font-size="14.00">CrearreporteComponent</text>
</g>
<!-- CrearreporteComponent&#45;&gt;AppModule -->
<g id="edge3" class="edge">
<title>CrearreporteComponent&#45;&gt;AppModule</title>
<path fill="none" stroke="black" d="M1149,-122.02C1149,-139.37 1149,-163 1149,-163 1149,-163 831.97,-163 831.97,-163"/>
<polygon fill="black" stroke="black" points="831.97,-159.5 821.97,-163 831.97,-166.5 831.97,-159.5"/>
</g>
<!-- EncontradoSingleComponent -->
<g id="node4" class="node">
<title>EncontradoSingleComponent</title>
<polygon fill="#ffffb3" stroke="black" points="1054.64,-122 873.36,-122 873.36,-86 1054.64,-86 1054.64,-122"/>
<text text-anchor="middle" x="964" y="-99.8" font-family="Times,serif" font-size="14.00">EncontradoSingleComponent</text>
</g>
<!-- EncontradoSingleComponent&#45;&gt;AppModule -->
<g id="edge4" class="edge">
<title>EncontradoSingleComponent&#45;&gt;AppModule</title>
<path fill="none" stroke="black" d="M964,-122.24C964,-137.57 964,-157 964,-157 964,-157 831.75,-157 831.75,-157"/>
<polygon fill="black" stroke="black" points="831.75,-153.5 821.75,-157 831.75,-160.5 831.75,-153.5"/>
</g>
<!-- EncontradosComponent -->
<g id="node5" class="node">
<title>EncontradosComponent</title>
<polygon fill="#ffffb3" stroke="black" points="855.81,-122 704.19,-122 704.19,-86 855.81,-86 855.81,-122"/>
<text text-anchor="middle" x="780" y="-99.8" font-family="Times,serif" font-size="14.00">EncontradosComponent</text>
</g>
<!-- EncontradosComponent&#45;&gt;AppModule -->
<g id="edge5" class="edge">
<title>EncontradosComponent&#45;&gt;AppModule</title>
<path fill="none" stroke="black" d="M780,-122.11C780,-122.11 780,-140.99 780,-140.99"/>
<polygon fill="black" stroke="black" points="776.5,-140.99 780,-150.99 783.5,-140.99 776.5,-140.99"/>
</g>
<!-- FooterComponent -->
<g id="node6" class="node">
<title>FooterComponent</title>
<polygon fill="#ffffb3" stroke="black" points="685.88,-122 568.12,-122 568.12,-86 685.88,-86 685.88,-122"/>
<text text-anchor="middle" x="627" y="-99.8" font-family="Times,serif" font-size="14.00">FooterComponent</text>
</g>
<!-- FooterComponent&#45;&gt;AppModule -->
<g id="edge6" class="edge">
<title>FooterComponent&#45;&gt;AppModule</title>
<path fill="none" stroke="black" d="M627,-122.24C627,-137.57 627,-157 627,-157 627,-157 728.19,-157 728.19,-157"/>
<polygon fill="black" stroke="black" points="728.19,-160.5 738.19,-157 728.19,-153.5 728.19,-160.5"/>
</g>
<!-- ListadoComponent -->
<g id="node7" class="node">
<title>ListadoComponent</title>
<polygon fill="#ffffb3" stroke="black" points="549.83,-122 426.17,-122 426.17,-86 549.83,-86 549.83,-122"/>
<text text-anchor="middle" x="488" y="-99.8" font-family="Times,serif" font-size="14.00">ListadoComponent</text>
</g>
<!-- ListadoComponent&#45;&gt;AppModule -->
<g id="edge7" class="edge">
<title>ListadoComponent&#45;&gt;AppModule</title>
<path fill="none" stroke="black" d="M488,-122.02C488,-139.37 488,-163 488,-163 488,-163 728.16,-163 728.16,-163"/>
<polygon fill="black" stroke="black" points="728.16,-166.5 738.16,-163 728.16,-159.5 728.16,-166.5"/>
</g>
<!-- LoginComponent -->
<g id="node8" class="node">
<title>LoginComponent</title>
<polygon fill="#ffffb3" stroke="black" points="408.28,-122 293.72,-122 293.72,-86 408.28,-86 408.28,-122"/>
<text text-anchor="middle" x="351" y="-99.8" font-family="Times,serif" font-size="14.00">LoginComponent</text>
</g>
<!-- LoginComponent&#45;&gt;AppModule -->
<g id="edge8" class="edge">
<title>LoginComponent&#45;&gt;AppModule</title>
<path fill="none" stroke="black" d="M351,-122.11C351,-141.34 351,-169 351,-169 351,-169 728.08,-169 728.08,-169"/>
<polygon fill="black" stroke="black" points="728.08,-172.5 738.08,-169 728.08,-165.5 728.08,-172.5"/>
</g>
<!-- MainComponent -->
<g id="node9" class="node">
<title>MainComponent</title>
<polygon fill="#ffffb3" stroke="black" points="275.38,-122 164.62,-122 164.62,-86 275.38,-86 275.38,-122"/>
<text text-anchor="middle" x="220" y="-99.8" font-family="Times,serif" font-size="14.00">MainComponent</text>
</g>
<!-- MainComponent&#45;&gt;AppModule -->
<g id="edge9" class="edge">
<title>MainComponent&#45;&gt;AppModule</title>
<path fill="none" stroke="black" d="M220,-122.28C220,-143.32 220,-175 220,-175 220,-175 727.91,-175 727.91,-175"/>
<polygon fill="black" stroke="black" points="727.91,-178.5 737.91,-175 727.91,-171.5 727.91,-178.5"/>
</g>
<!-- NavbarComponent -->
<g id="node10" class="node">
<title>NavbarComponent</title>
<polygon fill="#ffffb3" stroke="black" points="146.03,-122 23.97,-122 23.97,-86 146.03,-86 146.03,-122"/>
<text text-anchor="middle" x="85" y="-99.8" font-family="Times,serif" font-size="14.00">NavbarComponent</text>
</g>
<!-- NavbarComponent&#45;&gt;AppModule -->
<g id="edge10" class="edge">
<title>NavbarComponent&#45;&gt;AppModule</title>
<path fill="none" stroke="black" d="M85,-122.25C85,-145.02 85,-181 85,-181 85,-181 728.09,-181 728.09,-181"/>
<polygon fill="black" stroke="black" points="728.09,-184.5 738.09,-181 728.09,-177.5 728.09,-184.5"/>
</g>
<!-- AppComponent  -->
<g id="node13" class="node">
<title>AppComponent </title>
<polygon fill="#80b1d3" stroke="black" points="834.44,-252 725.56,-252 725.56,-216 834.44,-216 834.44,-252"/>
<text text-anchor="middle" x="780" y="-229.8" font-family="Times,serif" font-size="14.00">AppComponent </text>
</g>
<!-- AppModule&#45;&gt;AppComponent  -->
<g id="edge12" class="edge">
<title>AppModule&#45;&gt;AppComponent </title>
<path fill="none" stroke="black" stroke-dasharray="1,5" d="M780,-187.11C780,-187.11 780,-205.99 780,-205.99"/>
<polygon fill="black" stroke="black" points="776.5,-205.99 780,-215.99 783.5,-205.99 776.5,-205.99"/>
</g>
<!-- AppRoutingModule -->
<g id="node12" class="node">
<title>AppRoutingModule</title>
<polygon fill="#8dd3c7" stroke="black" points="1653.27,-122 1650.27,-126 1629.27,-126 1626.27,-122 1524.73,-122 1524.73,-86 1653.27,-86 1653.27,-122"/>
<text text-anchor="middle" x="1589" y="-99.8" font-family="Times,serif" font-size="14.00">AppRoutingModule</text>
</g>
<!-- AppRoutingModule&#45;&gt;AppModule -->
<g id="edge11" class="edge">
<title>AppRoutingModule&#45;&gt;AppModule</title>
<path fill="none" stroke="black" d="M1589,-122.25C1589,-145.02 1589,-181 1589,-181 1589,-181 831.79,-181 831.79,-181"/>
<polygon fill="black" stroke="black" points="831.79,-177.5 821.79,-181 831.79,-184.5 831.79,-177.5"/>
</g>
</g>
</svg>
